<?xml version="1.0" encoding="utf-8"?>
<!-- Generator: Adobe Illustrator 23.0.3, SVG Export Plug-In . SVG Version: 6.00 Build 0)  -->
<svg version="1.1" id="Layer_1" xmlns="http://www.w3.org/2000/svg" xmlns:xlink="http://www.w3.org/1999/xlink" x="0px" y="0px"
	 viewBox="0 0 700 700" style="enable-background:new 0 0 700 700;" xml:space="preserve">
<style type="text/css">
	.st0{fill:#E2413E;}
	.st1{fill:#F46060;}
	.st2{opacity:0.2;fill:#202020;}
	.st3{fill:#F7F4F0;}
</style>
<path class="st0" d="M662.52,677.24H37.54c-20.73,0-37.54-1.47-37.54-3.28V564.41h700.06v109.54
	C700.06,675.77,683.25,677.24,662.52,677.24z"/>
<path class="st1" d="M700.06,564.41H0l32.7-56.82c6.7-11.64,19.11-18.82,32.54-18.82h569.58c13.43,0,25.84,7.18,32.54,18.82
	L700.06,564.41z"/>
<ellipse class="st2" cx="158.24" cy="526.3" rx="52.59" ry="9.91"/>
<path class="st3" d="M486.38,63.82l-25.61-39.27c-1.5-2.31-4.59-2.96-6.9-1.45L139.88,227.89c-6.55,4.27-10.49,11.55-10.49,19.37
	l-0.05,278.19c0,2.23,12.73,4.03,28.43,4.03c15.7,0,28.43-1.81,28.43-4.03V265.52l298.73-194.8
	C487.23,69.22,487.88,66.13,486.38,63.82z"/>
</svg>
